<svg xmlns="http://www.w3.org/2000/svg" width="512" height="512.01"><g data-name="Group 2"><g data-name="Group 1" fill="#efc501"><path data-name="Path 4" d="M388.885 313.055a21.321 21.321 0 1 0-9.835 41.493c66.261 15.723 90.283 38.976 90.283 50.8 0 25.493-85.077 64-213.333 64-128.235 0-213.333-38.507-213.333-64 0-11.819 24.043-35.072 90.261-50.795a21.321 21.321 0 0 0-9.835-41.493C43.712 331.871-.005 364.639-.005 405.343c0 70.016 128.811 106.667 256 106.667 127.211 0 256-36.651 256-106.667.005-40.704-43.707-73.472-123.11-92.288Z"/><path data-name="Path 5" d="M256.01 170.681a21.333 21.333 0 1 0-21.333-21.333 21.341 21.341 0 0 0 21.333 21.333Z"/><path data-name="Path 6" d="m228.234 397.518 8.683 17.365a21.349 21.349 0 0 0 38.186 0l18.392-36.783c22.379-44.779 49.984-88.149 76.672-130.091l12.16-19.136A149.293 149.293 0 0 0 238.56 1.017c-66.39 7.552-121.216 61.013-130.411 127.1a149.057 149.057 0 0 0 27.546 109.551c36.177 49.023 64.422 103.573 92.539 159.85ZM256.01 85.347a64 64 0 1 1-64 64 64.079 64.079 0 0 1 64-64Z"/></g></g></svg>