<svg xmlns="http://www.w3.org/2000/svg" width="58.003" height="57.999"><g data-name="003---Call" fill="#efc501"><path d="M24.02 33.983c-5.536-5.536-6.786-11.072-7.068-13.29a1.988 1.988 0 0 1 .571-1.664l4.48-4.478a2 2 0 0 0 .282-2.475L15.152 1a2 2 0 0 0-2.591-.729L1.11 5.664a1.989 1.989 0 0 0-1.1 1.987c.6 5.7 3.085 19.712 16.855 33.483s27.78 16.255 33.483 16.855a1.989 1.989 0 0 0 1.987-1.1l5.393-11.451a2 2 0 0 0-.725-2.587L45.927 35.72a2 2 0 0 0-2.475.28l-4.478 4.48a1.988 1.988 0 0 1-1.664.571c-2.218-.282-7.754-1.532-13.29-7.068Z"/><path data-name="Shape" d="M46.003 31a2 2 0 0 1-2-2 15.017 15.017 0 0 0-15-15 2 2 0 0 1 0-4 19.021 19.021 0 0 1 19 19 2 2 0 0 1-2 2Z"/><path data-name="Shape" d="M56.003 31a2 2 0 0 1-2-2 25.028 25.028 0 0 0-25-25 2 2 0 0 1 0-4 29.032 29.032 0 0 1 29 29 2 2 0 0 1-2 2Z"/></g></svg>