<svg height="512pt" fill="#B7B7B7" viewBox="0 0 512 512" width="512pt" xmlns="http://www.w3.org/2000/svg"><path d="M197.332 192h-96C80.746 192 64 175.254 64 154.668v-53.336C64 80.746 80.746 64 101.332 64h96c20.59 0 37.336 16.746 37.336 37.332v53.336c0 20.586-16.746 37.332-37.336 37.332zm-96-96A5.336 5.336 0 0 0 96 101.332v53.336a5.336 5.336 0 0 0 5.332 5.332h96a5.337 5.337 0 0 0 5.336-5.332v-53.336A5.337 5.337 0 0 0 197.332 96zm309.336 352h-96c-20.59 0-37.336-16.746-37.336-37.332v-53.336c0-20.586 16.746-37.332 37.336-37.332h96C431.254 320 448 336.746 448 357.332v53.336C448 431.254 431.254 448 410.668 448zm-96-96a5.337 5.337 0 0 0-5.336 5.332v53.336a5.337 5.337 0 0 0 5.336 5.332h96a5.336 5.336 0 0 0 5.332-5.332v-53.336a5.336 5.336 0 0 0-5.332-5.332zm96-74.668h-96c-20.59 0-37.336-16.746-37.336-37.332V101.332c0-20.586 16.746-37.332 37.336-37.332h96C431.254 64 448 80.746 448 101.332V240c0 20.586-16.746 37.332-37.332 37.332zM314.668 96a5.337 5.337 0 0 0-5.336 5.332V240a5.335 5.335 0 0 0 5.336 5.332h96A5.334 5.334 0 0 0 416 240V101.332A5.336 5.336 0 0 0 410.668 96zM197.332 448h-96C80.746 448 64 431.254 64 410.668V272c0-20.586 16.746-37.332 37.332-37.332h96c20.59 0 37.336 16.746 37.336 37.332v138.668c0 20.586-16.746 37.332-37.336 37.332zm-96-181.332A5.334 5.334 0 0 0 96 272v138.668a5.336 5.336 0 0 0 5.332 5.332h96a5.337 5.337 0 0 0 5.336-5.332V272a5.335 5.335 0 0 0-5.336-5.332zm0 0"/><path d="M453.332 512H58.668C26.305 512 0 485.695 0 453.332V58.668C0 26.305 26.305 0 58.668 0h394.664C485.695 0 512 26.305 512 58.668v394.664C512 485.695 485.695 512 453.332 512zM58.668 32C43.968 32 32 43.969 32 58.668v394.664C32 468.032 43.969 480 58.668 480h394.664c14.7 0 26.668-11.969 26.668-26.668V58.668C480 43.968 468.031 32 453.332 32zm0 0"/></svg>