<svg fill="#00bfd6" xmlns="http://www.w3.org/2000/svg" width="30.725" height="30.726" style="enable-background:new 0 0 30.725 30.726" xml:space="preserve"><path d="M18.662 26.458a2.496 2.496 0 0 1 0 3.535 2.491 2.491 0 0 1-1.769.732c-.64 0-1.278-.244-1.768-.732L.495 15.364 15.125.733a2.496 2.496 0 0 1 3.535 0c.978.977.978 2.56 0 3.535L7.566 15.364l11.096 11.094zm-.26-11.094L29.497 4.269a2.495 2.495 0 0 0 0-3.535 2.494 2.494 0 0 0-3.533 0l-14.632 14.63 14.631 14.629a2.487 2.487 0 0 0 1.768.732 2.498 2.498 0 0 0 1.768-4.267L18.402 15.364z"/></svg>