<svg xmlns="http://www.w3.org/2000/svg" height="788" viewBox="1 -91 591.6 591" width="788"><path d="M428.691 204.5H163.31l30.62-102.07h204.14ZM592 408.637H0L30.621 306.57H561.38Zm0 0" style="stroke:none;fill-rule:nonzero;fill:#ffa230;fill-opacity:1"/><path d="M163.309 408.637H0L30.621 306.57h102.07Zm163.312 0H163.31l30.62-102.067H296Zm0 0" style="stroke:none;fill-rule:nonzero;fill:#fdb62f;fill-opacity:1"/><path d="M510.344 306.57H81.656l30.621-102.07h367.446Zm0 0" style="stroke:none;fill-rule:nonzero;fill:#ffa230;fill-opacity:1"/><path d="M244.965 306.57H81.656l30.621-102.07h102.067Zm163.312 0H244.965l30.62-102.07h102.071Zm81.653 102.067H326.62l30.621-102.067H459.31ZM326.621 204.5H163.31l30.62-102.07H296ZM132.691 82.016C129.2 61.082 112.797 44.68 91.863 41.19 112.797 37.7 129.2 21.297 132.691.363c3.489 20.934 19.891 37.336 40.825 40.828-20.934 3.489-37.336 19.891-40.825 40.825Zm0 0" style="stroke:none;fill-rule:nonzero;fill:#fdb62f;fill-opacity:1"/></svg>