<svg xmlns="http://www.w3.org/2000/svg" width="221" height="110"><defs><clipPath id="a"><path d="M0 0h221v110H0z"/></clipPath></defs><g data-name="SPRK_default_preset_name_web_1920 – 1" clip-path="url(#a)"><path fill="none" d="M0 0h221v110H0z"/><path fill="#EEE" data-name="Subtraction 1" d="M221 301H-.001v-.429h221V301Zm0-192.01c-1.539-42.1-31.416-69.308-56.208-84.718a214.9 214.9 0 0 0-37.2-18.14A173.922 173.922 0 0 0 110.78.667a165.483 165.483 0 0 0-16.691 4.9A203.126 203.126 0 0 0 57.041 22.6C32.274 37.357 2.273 64-.001 107.1V0h221v108.989Z"/></g></svg>