<svg data-name="phone-call (2)" xmlns="http://www.w3.org/2000/svg" width="128" height="128"><g data-name="Circle Grid"><circle data-name="Ellipse 1" cx="64" cy="64" r="64" fill="#0bf16e"/></g><path data-name="Path 1" d="M72.342 72.276c-8.718 8.718-17.262 12.254-20.34 9.177l-4.229-4.229a7.454 7.454 0 0 0-10.541 0l-9.49 9.487a7.454 7.454 0 0 0 0 10.541l7.391 7.391c6.984 6.984 27.641-2.339 47.437-22.135 9.9-9.9 16.387-19.222 20.581-27.993s5.048-15.954 1.555-19.444l-7.39-7.391a7.454 7.454 0 0 0-10.541 0l-9.487 9.487a7.454 7.454 0 0 0 0 10.541l4.229 4.229c3.077 3.077-.459 11.622-9.177 20.339Z" fill="#fff"/></svg>