<svg xmlns="http://www.w3.org/2000/svg" fill="#2c2c2c" style="enable-background:new 0 0 512 512" xml:space="preserve" width="512" height="512"><path d="M100.5 432h311c33.084 0 60-26.916 60-60V60c0-33.084-26.916-60-60-60h-311c-33.084 0-60 26.916-60 60v392c0 33.084 26.916 60 60 60h311c33.084 0 60-26.916 60-60v-.05c-16.725 12.583-37.506 20.05-60 20.05h-311c-11.028 0-20-8.972-20-20s8.972-20 20-20zm-20-372c0-11.028 8.972-20 20-20h311c11.028 0 20 8.972 20 20v312c0 11.028-8.972 20-20 20h-311a59.736 59.736 0 0 0-20 3.427V60zm142 108.58h-40c0-20.518 8.794-40.157 24.128-53.884 15.535-13.908 36.433-20.556 57.34-18.234 33.493 3.717 60.463 30.617 64.129 63.964 3.343 30.414-14.493 52.238-28.2 66.008-3.528 3.544-6.784 6.649-9.657 9.39-13.069 12.464-14.734 14.56-14.734 23.172V260h-40v-1.005c0-26.247 12.572-38.236 27.129-52.119 2.828-2.697 5.753-5.486 8.913-8.661 12.917-12.977 17.938-22.971 16.79-33.419-1.638-14.89-13.741-26.909-28.781-28.578-9.746-1.078-19.074 1.858-26.249 8.282-6.97 6.238-10.808 14.79-10.808 24.08zm13 121.42h40v40h-40v-40z"/></svg>