<svg fill="#B7B7B7" xmlns="http://www.w3.org/2000/svg" viewBox="0 0 480 480" style="enable-background:new 0 0 480 480" xml:space="preserve"><path d="M352 0H128c-22.08.026-39.974 17.92-40 40v400c.026 22.08 17.92 39.974 40 40h224c22.08-.026 39.974-17.92 40-40V40c-.026-22.08-17.92-39.974-40-40zm24 440c0 13.255-10.745 24-24 24H128c-13.255 0-24-10.745-24-24v-40h272v40zm0-56H104V64h272v320zm0-336H104v-8c0-13.255 10.745-24 24-24h224c13.255 0 24 10.745 24 24v8z"/><path d="M240 408c-13.255 0-24 10.745-24 24s10.745 24 24 24 24-10.745 24-24-10.745-24-24-24zm0 32a8 8 0 1 1 0-16 8 8 0 0 1 0 16zm8-416h-16a8 8 0 0 0 0 16h16a8 8 0 0 0 0-16z"/></svg>