<svg fill="#EFC501" xmlns="http://www.w3.org/2000/svg" viewBox="0 0 396.016 396.016" style="enable-background:new 0 0 396.016 396.016" xml:space="preserve"><path d="m9.404 160.914 37.094 200.62c3.519 19.801 20.641 34.289 40.751 34.482h221.518c20.111-.193 37.232-14.68 40.751-34.482l37.094-200.62H9.404zm120.686 89.862c0 5.771-4.678 10.449-10.449 10.449s-10.449-4.678-10.449-10.449v-31.347c0-5.771 4.678-10.449 10.449-10.449s10.449 4.678 10.449 10.449v31.347zm156.735 0c0 5.771-4.678 10.449-10.449 10.449s-10.449-4.678-10.449-10.449v-31.347c0-5.771 4.678-10.449 10.449-10.449s10.449 4.678 10.449 10.449v31.347zM130.09 88.816c0-37.51 30.408-67.918 67.918-67.918 37.51 0 67.918 30.408 67.918 67.918v61.649h20.898V88.816C286.825 39.764 247.06 0 198.008 0s-88.816 39.764-88.816 88.816v61.649h20.898V88.816z"/></svg>