<svg data-name="Group 1" xmlns="http://www.w3.org/2000/svg" width="220.77" height="109.127"><path data-name="Subtraction 1" d="M220.77 108h-.034c-1.61-17.6-5.165-35.662-30.644-63.1-12.892-13.883-33.544-24.765-48.6-31.449C125.318 6.271 111.212 2 110.413 2a.043.043 0 0 0-.026 0c-42.911 11.669-68.4 31.793-77.371 39.9C20.5 52.02 11.222 65.63 5.427 82.361A100.569 100.569 0 0 0 .02 108H0V0h220.77Z" fill="#fff"/><path data-name="Path 2" d="M2 109.075s-.666-40.9 31.016-66.505c14.34-12.969 40.686-29.927 77.371-39.9.334-.333 54.693 15.961 79.7 42.9s27.014 44.891 28.681 63.512" fill="none" stroke="#9b9b9b"/></svg>